# Blender v3.1.2 OBJ File: ''
# www.blender.org
mtllib Cube.mtl
o Cube.001
v 1.000000 1.000000 1.000000
v -1.000000 1.000000 -1.000000
v -1.000000 1.000000 1.000000
v 1.000000 -1.000000 -1.000000
v -1.000000 -1.000000 -1.000000
v 1.000000 1.000000 -1.000000
v 1.000000 -1.000000 1.000000
v -1.000000 -1.000000 1.000000
vt 1.000000 1.000000
vt 0.000000 0.000000
vt 0.000000 1.000000
vt 0.000000 1.000000
vt 1.000000 0.000000
vt 0.000000 0.000000
vt 1.000000 0.000000
vt 0.000000 1.000000
vt 0.000000 0.000000
vt 0.000000 1.000000
vt 1.000000 1.000000
vt 1.000000 1.000000
vt 0.000000 0.000000
vt 1.000000 0.000000
vt 1.000000 1.000000
vt 1.000000 0.000000
vn 0.0000 1.0000 0.0000
vn 0.0000 0.0000 -1.0000
vn 1.0000 -0.0000 0.0000
vn 0.0000 -1.0000 -0.0000
vn -1.0000 -0.0000 0.0000
vn 0.0000 -0.0000 1.0000
usemtl Material.001
s 1
f 1/1/1 2/2/1 3/3/1
f 2/4/2 4/5/2 5/6/2
f 6/7/3 7/8/3 4/9/3
f 8/10/4 4/5/4 7/11/4
f 3/12/5 5/6/5 8/10/5
f 1/1/6 8/13/6 7/14/6
f 1/1/1 6/7/1 2/2/1
f 2/4/2 6/15/2 4/5/2
f 6/7/3 1/1/3 7/8/3
f 8/10/4 5/6/4 4/5/4
f 3/12/5 2/16/5 5/6/5
f 1/1/6 3/3/6 8/13/6
